Patient4_TMGait_0pt7_01_right_13_EMG.mot
version=1
nRows=33
nColumns=33
inDegrees=no
endheader
time	1LAddLong	2LGlutMax	3LGlutMed	4LIliopsoas	5LSemiMemb	6LBicFemLong	7LRecFem	8LVastMed	9LVastLat	10LGasMed	11LTibAnt	12lTibPost	13LPeroneusLong	14LSol	15LExtDigLong	16LFlexDigLong	17RAddLong	18RGlutMax	19RGlutMed	20RIliopsoas	21RSemiMemb	22RBicFemLong	23RRecFem	24RVastMed	25RVastLat	26RGasMed	27RTibAnt	28RTibPost	29RPeroneusLong	30RSol	31RExtDigLong	32RFlexDigLong
15.55	-0.005493	-0.054321	0.021057	0.010986	-0.13229	-0.006256	0.064697	0.023041	-0.019989	0.1355	0.012054	-0.014954	-0.016174	0.16785	0.024567	-0.12894	-0.045776	-0.09201	-0.029144	-0.04837	-0.10727	0.04425	-0.055542	-0.086212	0.021973	-0.00473	-0.070801	-0.000305	0.014648	0.023651	-0.005646	-0.16083
15.551	-0.000763	-0.018311	-0.013123	0.006256	-0.052185	-0.08728	0.062408	0.007172	0.04303	0.2684	-0.005188	-0.016174	-0.081024	0.15457	-0.057678	0.32242	-0.034332	-0.10895	0.007477	0.048676	-0.078583	0.10727	-0.014191	-0.079041	0.019226	0.006256	0.000305	-0.000458	-0.39368	0.047302	-0.002899	-0.16266
15.552	-0.001221	-0.032654	-0.03418	0.007324	0.011902	-0.054474	0.14191	0.006866	0.063171	0.18768	-0.019073	-0.025482	-0.090637	0.16922	0.034332	0.026245	-0.038452	-0.11887	-0.083771	0.057526	0.010071	0.078583	-0.027771	-0.067596	0.003815	0.004883	0.041504	-0.000458	-0.12741	0.1149	-0.001831	-0.16266
15.553	0.001221	-0.01236	-0.068512	0.01236	0.018921	0.050659	0.21988	0.000458	0.040436	0.12772	-0.019073	-0.019379	-0.17899	0.054474	0.079041	-0.16953	-0.030975	-0.13046	-0.079803	0.097809	0.04364	0.069427	0.010681	-0.091248	0.003357	-0.000153	0.092316	-0.000916	-0.023651	0.072174	-0.000458	-0.17548
15.554	0.019684	-0.023499	-0.045166	0.00061	-0.050812	0.043335	0.19028	0.003662	0.053101	0.63507	-0.035706	-0.024261	-0.28244	0.082703	0.095825	-0.69733	-0.04364	-0.077209	0.062103	0.1178	0.018311	0.045166	-0.031433	-0.085602	0.004425	-0.006714	0.13672	-0.000153	-0.088806	0.045624	0.001221	-0.16373
15.555	0.014648	0.003052	-0.015869	-0.003052	-0.00351	-0.00412	0.16464	0.000763	0.014801	1.6808	-0.075378	-0.048523	-0.25696	0.086212	0.11917	0.47333	-0.05722	-0.068359	-0.019226	0.093994	0.026855	0.062714	-0.025635	-0.046234	-0.00351	-0.012054	0.15335	-0.000763	-0.037231	-0.005341	-0.001831	-0.14435
15.556	0.019684	-0.001678	-0.003815	-0.004578	0.074463	-0.068359	0.16647	0.000916	0.027924	1.3589	-0.050812	0.003357	-0.14343	-0.05661	0.072937	-0.32608	-0.045013	-0.085602	-0.20065	0.033875	-0.04425	0.11475	-0.033417	-0.039063	0.014954	-0.011139	0.1709	-0.002594	0.003052	-0.034943	0.002899	-0.12711
15.557	0.025482	-0.018311	0.072327	0.015564	0.072479	-0.066528	0.14969	0.009613	0.017853	-0.19333	-0.012665	-0.02121	0.077667	-0.23163	-0.04425	0.96634	-0.019531	-0.039215	-0.31845	-0.018005	0.030975	0.072021	-0.005035	-0.075989	-0.000458	-0.012665	0.1506	0.002136	-0.032806	-0.059052	-0.005188	-0.10529
15.558	0.02243	0.024872	0.078278	0.034027	0.046082	-0.065308	0.13931	0.009613	0.020447	-0.4689	-0.015259	0.015564	0.10696	-0.33386	-0.13763	0.15015	0.004272	0.018921	-0.39002	-0.034027	-0.01358	0.020752	-0.044098	-0.091858	0.011597	-0.014648	0.15717	-0.000305	0.058746	-0.04715	-0.001526	-0.094299
15.559	0.01297	0.014801	0.02243	-0.014954	0.038605	-0.016479	0.24246	0.004425	0.063629	-0.34485	-0.006104	0.11887	0.15152	-0.56046	-0.15762	0.14832	0.010986	0.007629	-0.47623	-0.014648	-0.1239	-0.055542	-0.006409	-0.098114	0.004578	-0.014343	0.00412	0.003357	0.13458	-0.024719	-0.001678	-0.07843
15.56	0.01358	0.038452	-0.003967	-0.003357	0.04837	-0.021515	0.32761	0.000305	0.067139	-0.68253	0.01358	0.083618	0.15747	-0.44586	-0.06073	-0.15884	-0.000916	0.033417	-0.16052	0.077057	-0.28107	-0.078278	-0.016022	-0.1236	0.000916	-0.008392	-0.026093	-0.005188	0.33356	-0.027618	-0.003052	-0.064087
15.561	0.007019	0.02594	-0.021515	-0.002441	0.055695	-0.054626	0.29663	0.009003	0.059357	-1.0138	0.011749	0.061188	0.14969	-0.13702	0.017853	0.15182	-0.037842	-0.000305	0.09552	0.079041	-0.43503	-0.003967	-0.035095	-0.051422	0.008545	-0.007477	0.016479	0.001526	0.40344	-0.006104	0.009918	-0.041962
15.562	0.013275	0.035095	0.036469	0.009155	0.049438	-0.06073	0.26199	0.00824	0.044098	-1.1743	0.010529	0.30075	0.10071	-0.10056	-0.015106	0.052948	-0.042419	-0.11673	0.38742	0.029297	-0.22095	0.036316	-0.010681	-0.027466	0.006866	0.003204	0.055237	-0.000153	0.30045	-0.059509	-0.001373	-0.0177
15.563	0.007172	0.040131	0.018616	0.015717	0.037689	-0.011139	0.28458	0.014343	0.061035	-0.67535	0.031281	-0.54672	0.055847	-0.092468	-0.069885	-0.35721	-0.060272	-0.15091	0.54428	-0.1265	0.17609	0.01297	0.006714	0.00351	-0.004425	0.003357	0.072174	-0.002289	-0.43366	-0.10208	-0.001984	0.00473
15.564	-0.00412	0.037384	0.018921	0.018005	0.032349	-0.005341	0.24262	0.029602	0.014954	-0.2861	0.009308	-0.13672	0.015259	-0.36026	-0.11688	-0.20035	-0.036163	-0.19104	0.37811	-0.12085	0.052338	-0.00473	0.006866	-0.037384	-0.003052	-0.003815	0.13702	-0.009766	-0.28198	-0.047607	-0.000916	0.007172
15.565	0.00473	0.065155	-0.039825	-0.005035	0.029602	0.033569	0.21729	0.038605	0.065918	-0.12589	-0.055389	0.14236	0.031128	-0.50079	-0.093842	0.24094	-0.034637	-0.16266	0.18616	-0.096893	-0.042877	0.000153	0.021667	-0.041046	-0.001526	0.00412	0.18768	0.001984	-0.29495	-0.067749	-0.00885	0.024872
15.566	0.005646	0.06485	-0.018463	-0.010834	0.022125	0.031433	0.26001	0.019836	0.15701	-0.029602	0.017853	-0.044708	-0.010681	-0.17639	-0.057678	-0.045776	-0.033569	-0.16144	0.08255	0.019073	0.093689	0.009308	0.001068	-0.058289	0.012054	0.000916	0.15167	-0.005951	-0.50568	-0.087738	-0.003052	0.021973
15.567	0.005951	0.10223	-0.032349	-0.018158	0.015564	0.01236	0.32623	0.013275	0.11414	-0.065613	0.006409	0.005951	-0.03952	0.15579	-0.017395	-0.10483	-0.022278	-0.050659	-0.1152	-0.004883	-0.007477	0.15884	0.023651	-0.069275	0.027618	0.007477	0.091095	-0.004578	-0.16022	-0.008545	-0.001373	0.029297
15.568	0.002899	0.1059	-0.030365	-0.006409	0.014496	0.006409	0.34149	-0.010223	0.075989	-0.23895	0.05249	-0.024261	-0.059814	0.12451	0.004425	-0.10407	0.000763	-0.063934	0.10361	-0.004425	0.003815	0.31342	-0.00351	-0.048218	0.026398	0.019073	0.072327	-0.001221	-0.027008	-0.095062	-0.001678	0.030518
15.569	-0.002441	0.11215	-0.007935	0.018158	0.032349	0.010071	0.34958	-0.025177	0.095978	-0.23743	0.055695	-0.059052	-0.11154	0.15274	0.033264	0.07431	-0.00885	-0.044403	0.25452	-0.024414	0.031128	0.25696	-0.001373	-0.11002	0.000916	0.020752	0.083923	0.001221	0.066528	-0.059814	-0.004883	0.045776
15.57	0.003662	0.11765	0.022125	0.021973	0.014801	0.014801	0.35172	-0.020447	-0.005341	-0.17456	0.052185	-0.020752	-0.012665	0.29816	0.059052	-0.23621	0.001221	-0.032196	0.11826	-0.031281	0.002136	0.32135	-0.016174	-0.073547	0.020142	0.020905	0.056305	-0.004272	0.34332	-0.005646	-0.000458	0.03418
15.571	0.006561	0.14603	-0.016327	0.002136	-0.001678	-0.007019	0.36057	-0.006104	-0.12894	-0.091248	0.045319	-0.009155	-0.017242	0.4602	0.057678	0.032043	-0.016785	-0.065002	-0.011292	0.000305	0.18051	0.26382	-0.005493	-0.067139	0.021973	0.018463	0.096283	-0.001373	0.35111	-0.044861	-0.001984	0.03891
15.572	0.007782	0.15045	-0.019226	-0.001221	0.004425	-0.019836	0.30518	-0.004883	-0.10788	-0.095215	-0.018921	0.028381	-0.081787	0.36926	0.047302	-0.13519	0.002747	-0.05249	-0.078888	-0.021057	0.20371	0.21194	0.007172	-0.085754	0.006561	0.009003	0.11551	0.001068	-0.38132	-0.1738	-0.000763	0.041656
15.573	0	0.17929	-0.016174	0.00473	-0.021057	-0.018616	0.36346	0.007935	-0.057983	-0.090485	-0.020752	0.1944	-0.16937	0.14389	0.052032	-0.19821	0.017853	-0.06546	-0.29923	-0.074463	-0.045166	0.095978	0.006409	-0.050507	0.023346	-0.007019	0.083771	-0.005341	-0.14053	-0.1593	-0.002136	0.042267
15.574	-0.00061	0.20081	0.0354	0.004578	-0.018463	-0.019073	0.37674	0.00473	-0.066071	-0.053864	-0.007629	-0.14954	-0.20615	0.12772	0.032501	0.010071	0.02182	-0.049438	-0.15625	-0.112	-0.043335	-0.028992	-0.012054	-0.074005	0.010376	-0.016022	0.061798	0.000458	-0.13153	-0.048828	-0.000458	0.068359
15.575	-0.003967	0.17899	0.048676	0.001984	-0.052643	0.029602	0.37567	-0.00473	-0.10407	0.009003	-0.007935	-0.057526	-0.11841	0.13947	-0.010223	0.14191	0.029297	-0.063782	-0.21683	-0.12436	-0.047913	-0.021973	0.016479	-0.057068	0.013428	-0.019836	-0.010071	0.006409	-0.024719	0.009003	-0.001678	0.066528
15.576	0.002441	0.15274	-0.003052	0.018616	-0.04715	0.001831	0.42404	0.005646	-0.16251	-0.018768	-0.002289	0.052643	-0.018616	0.06073	0.071106	0.26413	0.035858	-0.12024	-0.20035	0.075836	-0.081787	-0.011597	-0.046844	-0.085297	0.027161	-0.010681	0.01358	0.001373	0.054474	-0.045624	-0.001068	0.071411
15.577	0.003815	0.17593	0.015869	0.010376	-0.020599	-0.022888	0.42999	0.00824	-0.16022	-0.18402	-0.014496	0.065613	0.12299	0.081482	0.11459	-0.3566	0.012817	-0.12009	-0.31021	0.20676	-0.074005	0.002899	-0.028687	-0.071106	0.03479	-0.0177	-0.011292	-0.000153	0.055389	-0.088806	-0.001831	0.055542
15.578	0.003815	0.19684	0.068054	0.009003	0.012054	-0.047302	0.44571	0.004425	-0.13473	-0.20844	-0.006561	-0.10437	0.1149	0.23224	0.063477	-0.3685	0.018158	-0.1413	-0.19211	0.18127	0.010071	-0.015564	-0.041962	-0.050812	0.009766	-0.023651	0.036163	-0.000458	-0.050812	-0.083313	-0.002136	0.03479
15.579	-0.001526	0.17624	0.058746	0.004272	-0.028992	-0.019684	0.38162	0.007172	-0.065155	-0.14999	0.002747	-0.048065	-0.000916	0.27603	-0.02121	-0.26062	-0.017853	-0.10422	-0.23224	0.16434	0.10208	0.006104	-0.056458	-0.062103	0.034332	-0.032349	0.066071	-0.010223	-0.25238	-0.083008	0.000458	0.025787
15.58	0.005646	0.18143	0.068512	0.000153	-0.046234	-0.022888	0.37628	0.004272	0.11475	-0.089264	-0.007935	-0.048981	-0.015869	0.08667	-0.071564	-0.040283	-0.000458	-0.089569	-0.32089	0.061493	0.041046	0.033569	-0.035095	-0.002899	0.034027	-0.029144	0.069885	-0.006714	-0.4361	-0.11047	-0.000458	0.022736
15.581	0.008392	0.18097	0.073242	-0.012512	0.050201	-0.0383	0.29846	-0.001526	0.11612	0.0383	-0.023193	0.052643	0.046997	-0.16312	-0.037842	0.73898	0.004272	-0.11414	-0.28793	-0.040283	-0.009155	0.058441	-0.032349	-0.001984	0.057678	-0.044861	0.066223	-0.006866	0.07309	-0.10056	0.001984	0.033875
15.582	0.017242	0.17716	0.053558	0.002594	0.080566	0.011139	0.34134	0.004425	0.1004	0.040283	-0.032349	0.094299	0.10849	-0.1445	-0.065308	0.40054	0.026703	-0.052795	-0.21561	-0.040436	0.068359	-0.029144	0.01236	-0.013885	0.037384	-0.060272	0.052795	-0.005798	0.21332	-0.081635	-0.002747	0.020905
